# xmcd CD database file
#
# Track frame offsets:
#	150
#	17242
#	29672
#	45895
#
# Disc length: 901 seconds
#
# Revision: 0
# Processed by: cddbd v1.4PL0 Copyright (c) Steve Scherf et al.
# Submitted via: CDex 1.50Beta6
#
DISCID=28038304
DTITLE=Paul Carrack - How long - CD Single
DYEAR=1998
DGENRE=Rhythmic Soul
TTITLE0=How long - CD Single
TTITLE1=Love me as hard as you hurt me
TTITLE2=Into the mystic
TTITLE3=The Living Years
EXTD=YEAR: 1998
EXTT0=
EXTT1=
EXTT2=
EXTT3=
PLAYORDER=
